<svg xmlns="http://www.w3.org/2000/svg" viewBox="0 0 99 66" width="99" height="66">
  <style>
    tspan { white-space:pre }
    .shp0 { fill: #ffffff }
    .shp1 { fill: #22a9e0 }
    .shp2 { fill: #f3eb33 }
  </style>
  <g id="Layer">
    <g id="Layer">
      <path id="Layer" class="shp0" d="M-17.03 80.63L-17.03 83.3C-17.03 83.77 -17.16 84.13 -17.49 84.45C-18.57 85.43 -19.98 86.06 -21.71 86.06C-25.02 86.04 -27.71 83.63 -27.71 80C-27.71 76.37 -25.02 73.98 -21.69 73.98C-19.94 73.98 -18.68 74.6 -17.7 75.58C-17.54 75.72 -17.46 75.93 -17.46 76.16C-17.46 76.61 -17.83 76.96 -18.28 76.96C-18.49 76.96 -18.69 76.88 -18.85 76.74C-19.56 76.03 -20.55 75.55 -21.69 75.55C-24.11 75.55 -25.92 77.4 -25.92 80.02C-25.92 82.63 -24.11 84.51 -21.69 84.51C-20.41 84.51 -19.3 83.88 -18.76 83.35L-18.76 81.26L-21.8 81.26C-22.22 81.26 -22.57 80.91 -22.57 80.47C-22.57 80.05 -22.22 79.72 -21.8 79.72L-17.94 79.72C-17.35 79.7 -17.03 80.04 -17.03 80.63Z"/>
      <path id="Layer" class="shp0" d="M-14.8 84.9L-14.8 74.95C-14.8 74.48 -14.4 74.08 -13.92 74.08C-13.46 74.08 -13.07 74.48 -13.07 74.95L-13.07 84.29L-8.49 84.29C-8.07 84.29 -7.71 84.62 -7.71 85.04C-7.71 85.48 -8.07 85.83 -8.49 85.83L-13.86 85.83C-14.47 85.82 -14.8 85.48 -14.8 84.9Z"/>
      <path id="Layer" fill-rule="evenodd" class="shp0" d="M-1.07 73.97C2.39 73.97 4.77 76.54 4.77 79.99C4.77 83.45 2.39 86.01 -1.07 86.01C-4.53 86.01 -6.92 83.43 -6.92 79.99C-6.92 76.54 -4.53 73.97 -1.07 73.97ZM-1.07 75.53C-3.56 75.53 -5.13 77.43 -5.13 80C-5.13 82.55 -3.56 84.48 -1.07 84.48C1.38 84.48 2.98 82.56 2.98 80C2.98 77.43 1.38 75.53 -1.07 75.53Z"/>
      <path id="Layer" fill-rule="evenodd" class="shp0" d="M6.87 84.9L6.87 75.1C6.87 74.5 7.21 74.16 7.82 74.16L12.32 74.16C14.39 74.16 15.59 75.43 15.59 77.12C15.59 78.59 14.63 79.57 13.57 79.8C14.8 79.99 15.81 81.24 15.81 82.66C15.81 84.5 14.59 85.8 12.46 85.8L7.82 85.8C7.21 85.82 6.87 85.48 6.87 84.9ZM11.98 79.1C13.15 79.1 13.79 78.36 13.79 77.41C13.79 76.45 13.15 75.71 11.98 75.71L8.6 75.71L8.6 79.12L11.98 79.12L11.98 79.1ZM12.06 84.29C13.28 84.29 14.02 83.59 14.02 82.45C14.02 81.49 13.36 80.65 12.06 80.65L8.6 80.65L8.6 84.29L12.06 84.29Z"/>
      <path id="Layer" fill-rule="evenodd" class="shp0" d="M27.78 85.01C27.78 85.49 27.38 85.9 26.9 85.9C26.51 85.9 26.19 85.66 26.08 85.33L25.34 83.4L19.59 83.4L18.85 85.33C18.73 85.66 18.41 85.9 18.04 85.9C17.56 85.9 17.16 85.49 17.16 85.01C17.16 84.9 17.19 84.79 17.22 84.67L21.05 75.05C21.26 74.48 21.82 74.06 22.46 74.06C23.12 74.06 23.66 74.48 23.88 75.05L27.71 84.67C27.73 84.77 27.78 84.9 27.78 85.01ZM24.77 81.86L22.46 75.69L20.17 81.86L24.77 81.86Z"/>
      <path id="Layer" class="shp0" d="M29.54 84.9L29.54 74.95C29.54 74.48 29.94 74.08 30.42 74.08C30.89 74.08 31.27 74.48 31.27 74.95L31.27 84.29L35.84 84.29C36.25 84.29 36.62 84.62 36.62 85.04C36.62 85.48 36.25 85.83 35.84 85.83L30.47 85.83C29.88 85.82 29.54 85.48 29.54 84.9Z"/>
      <path id="Layer" class="shp0" d="M53.15 80.63L53.15 83.3C53.15 83.77 53.02 84.13 52.69 84.45C51.61 85.43 50.2 86.06 48.47 86.06C45.16 86.06 42.45 83.64 42.45 80C42.45 76.37 45.14 73.98 48.47 73.98C50.22 73.98 51.49 74.6 52.46 75.58C52.62 75.72 52.7 75.93 52.7 76.16C52.7 76.61 52.34 76.96 51.89 76.96C51.68 76.96 51.47 76.88 51.31 76.74C50.61 76.03 49.61 75.55 48.47 75.55C46.06 75.55 44.25 77.4 44.25 80.02C44.25 82.63 46.06 84.51 48.47 84.51C49.76 84.51 50.86 83.88 51.41 83.35L51.41 81.26L48.36 81.26C47.95 81.26 47.59 80.91 47.59 80.47C47.59 80.05 47.95 79.72 48.36 79.72L52.22 79.72C52.83 79.7 53.15 80.04 53.15 80.63Z"/>
      <path id="Layer" fill-rule="evenodd" class="shp0" d="M65.12 85.01C65.12 85.49 64.72 85.9 64.24 85.9C63.85 85.9 63.53 85.66 63.42 85.33L62.68 83.4L56.93 83.4L56.2 85.33C56.07 85.66 55.75 85.9 55.38 85.9C54.9 85.9 54.5 85.49 54.5 85.01C54.5 84.9 54.53 84.79 54.56 84.67L58.39 75.05C58.6 74.48 59.16 74.06 59.8 74.06C60.46 74.06 61 74.48 61.23 75.05L65.05 84.67C65.09 84.77 65.12 84.9 65.12 85.01ZM62.11 81.86L59.8 75.69L57.51 81.86L62.11 81.86Z"/>
      <path id="Layer" class="shp0" d="M76.88 85.03L76.88 76.56L73.22 85.57C73.14 85.78 72.97 85.91 72.76 85.91C72.54 85.91 72.36 85.78 72.3 85.57L68.64 76.56L68.64 85.03C68.64 85.49 68.26 85.9 67.79 85.9C67.31 85.9 66.91 85.49 66.91 85.03L66.91 75.53C66.91 74.74 67.55 74.08 68.37 74.08C68.98 74.08 69.52 74.45 69.73 74.98L72.78 82.55L75.82 74.98C76.03 74.44 76.57 74.08 77.18 74.08C78 74.08 78.64 74.74 78.64 75.53L78.64 85.03C78.64 85.49 78.24 85.9 77.76 85.9C77.26 85.9 76.88 85.51 76.88 85.03Z"/>
      <path id="Layer" class="shp0" d="M81.19 84.9L81.19 75.1C81.19 74.5 81.52 74.16 82.13 74.16L88.28 74.16C88.7 74.16 89.07 74.52 89.07 74.95C89.07 75.37 88.7 75.71 88.28 75.71L82.93 75.71L82.93 79.12L88.17 79.12C88.59 79.12 88.96 79.46 88.96 79.88C88.96 80.31 88.59 80.66 88.17 80.66L82.93 80.66L82.93 84.3L88.28 84.3C88.7 84.3 89.07 84.64 89.07 85.06C89.07 85.49 88.7 85.85 88.28 85.85L82.13 85.85C81.52 85.82 81.19 85.48 81.19 84.9Z"/>
      <path id="Layer" class="shp0" d="M94.67 84.56C94.67 84.11 95.03 83.76 95.46 83.76C95.62 83.76 95.78 83.8 95.89 83.9C96.31 84.25 96.79 84.48 97.45 84.48C98.79 84.48 99.62 83.58 99.62 82.21L99.62 74.97C99.62 74.5 100.03 74.1 100.49 74.1C100.97 74.1 101.35 74.5 101.35 74.97L101.35 82.23C101.35 84.82 99.72 86.04 97.56 86.04C96.58 86.04 95.75 85.8 95 85.2C94.8 85.04 94.67 84.82 94.67 84.56Z"/>
      <path id="Layer" fill-rule="evenodd" class="shp0" d="M113.27 85.01C113.27 85.49 112.87 85.9 112.39 85.9C112.01 85.9 111.69 85.66 111.58 85.33L110.84 83.4L105.09 83.4L104.35 85.33C104.22 85.66 103.9 85.9 103.53 85.9C103.05 85.9 102.65 85.49 102.65 85.01C102.65 84.9 102.68 84.79 102.72 84.67L106.55 75.05C106.75 74.48 107.31 74.06 107.95 74.06C108.61 74.06 109.16 74.48 109.38 75.05L113.21 84.67C113.23 84.77 113.27 84.9 113.27 85.01ZM110.26 81.86L107.95 75.69L105.66 81.86L110.26 81.86Z"/>
      <path id="Layer" class="shp0" d="M125.02 85.03L125.02 76.56L121.36 85.57C121.28 85.78 121.11 85.91 120.9 85.91C120.67 85.91 120.5 85.78 120.43 85.57L116.78 76.56L116.78 85.03C116.78 85.49 116.4 85.9 115.93 85.9C115.45 85.9 115.05 85.49 115.05 85.03L115.05 75.53C115.05 74.74 115.69 74.08 116.51 74.08C117.12 74.08 117.66 74.45 117.87 74.98L120.91 82.55L123.96 74.98C124.17 74.44 124.71 74.08 125.32 74.08C126.14 74.08 126.78 74.74 126.78 75.53L126.78 85.03C126.78 85.49 126.38 85.9 125.9 85.9C125.4 85.9 125.02 85.51 125.02 85.03Z"/>
    </g>
    <g id="Layer">
      <path id="Layer" fill-rule="evenodd" class="shp0" d="M81.41 33.26C81.41 51.5 66.88 65.92 48.75 65.92C30.61 65.92 15.89 51.37 15.89 33.13C15.89 14.89 30.5 0.08 48.63 0.08C66.77 0.08 81.41 15.04 81.41 33.26Z"/>
      <g id="Layer">
        <path id="Layer" fill-rule="evenodd" class="shp1" d="M19.5 34.61C19.18 31.52 16.87 30.39 16.56 26.26C16.12 28.43 15.88 30.7 15.88 33C15.88 37.54 16.79 41.87 18.45 45.81C17.91 40.81 19.93 38.68 19.5 34.61Z"/>
        <path id="Layer" fill-rule="evenodd" class="shp1" d="M32.5 4.35C28.64 6.55 25.26 9.51 22.57 13.06C28.75 7.81 34.99 8.48 36.09 7.52C37.5 6.28 31.37 5.78 31.37 5.78C31.37 5.78 31.61 5.15 32.5 4.35Z"/>
        <path id="Layer" fill-rule="evenodd" class="shp1" d="M61.47 63.34C57.53 65.02 53.2 65.95 48.67 65.95C38.85 65.95 30.05 61.62 24.05 54.75C25.28 55.25 26.64 55.41 28.07 55.26C20.6 48.21 27.17 37.3 32.84 32.45C38.51 27.61 43.77 24.47 44.65 18.06C45.53 11.65 40.19 10.88 36.06 10.88C39.82 6.89 45.42 6.99 45.94 7.07C46.47 7.15 45.32 8.03 45.05 8.89C44.77 9.72 44.61 9.34 45.48 10.19C46.34 11.04 47.51 8.79 48.06 7.97C48.6 7.15 49.21 6.86 50.09 7.23C50.97 7.6 51.84 7.74 52.72 6.58C53.6 5.44 55.06 6 56.47 6.15C57.89 6.29 58.29 5.59 58.65 4.14C59 2.69 55.25 -0.23 44.12 0.68C42.77 0.77 41.57 0.93 40.5 1.13C43.11 0.45 45.83 0.1 48.63 0.1C65.01 0.1 78.58 12.17 81.01 27.95C79.9 25.19 77.89 20.52 76.96 20.52C75.64 20.52 74.47 19.91 73.88 19.38C73.27 18.85 71.05 16.37 69.72 18.03C68.39 19.69 67.33 23.52 70.26 25.13C73.19 26.74 72.18 23.16 73.79 23.76C74.35 24.13 74.51 28.17 75.36 28.17C76.19 28.17 76.3 24.37 76.3 24.37C76.3 24.37 79.33 28.12 76.38 29.93C74.49 31.05 70.77 27.51 68.23 25.45C65.68 23.41 61.15 22.42 58.84 26.93C56.53 31.44 57.17 36.3 61.47 40.71C65.76 45.12 60.44 50.82 58.62 52.61C56.79 54.39 52.06 59.22 58.57 62.57C59.45 63.02 60.43 63.26 61.47 63.34ZM46.9 11.33C45.61 12.49 45.77 12.44 46.22 12.72C46.66 12.99 48.31 13.09 49.26 11.38C50.2 9.67 48.2 10.17 46.9 11.33Z"/>
      </g>
      <path id="Layer" fill-rule="evenodd" class="shp2" d="M86.23 33.42C84.25 33.11 82.31 33.13 81.39 33.16C81.39 33.19 81.39 33.23 81.39 33.26C81.39 35.11 81.23 36.93 80.95 38.7C81.84 38.62 83.89 38.52 86.22 39.1C96.65 42.11 95.86 54.83 84.09 54.83C56.4 54.83 45.59 6.31 19.8 6.31C8.83 6.31 0.06 13.97 0.06 22.26C0.06 29.67 4.82 38.09 15.43 39.84L16.61 40.03C16.21 38.22 15.97 36.33 15.89 34.42L15.43 34.35C-0.67 31.13 4.44 11.4 19.43 11.4C42.13 11.4 53.04 59.96 84.41 59.96C90.77 59.96 98.95 56.24 98.95 47.65C98.97 40.31 93.57 34.75 86.23 33.42Z"/>
    </g>
    <g id="Layer">
      <path id="Layer" fill-rule="evenodd" class="shp0" d="M130.41 73.97C131.57 73.97 132.48 74.89 132.48 76.04C132.48 77.19 131.57 78.12 130.41 78.12C129.28 78.12 128.35 77.19 128.35 76.04C128.36 74.89 129.28 73.97 130.41 73.97ZM130.41 74.26C129.44 74.26 128.64 75.05 128.64 76.03C128.64 77.01 129.44 77.82 130.41 77.82C131.39 77.82 132.18 77.01 132.18 76.03C132.19 75.05 131.41 74.26 130.41 74.26ZM130.45 76.3L129.95 76.3L129.95 77.12C129.95 77.2 129.89 77.28 129.81 77.28C129.71 77.28 129.65 77.22 129.65 77.12L129.65 75.06C129.65 74.95 129.73 74.87 129.84 74.87L130.61 74.87C131.01 74.87 131.36 75.16 131.36 75.59C131.36 76.06 130.99 76.25 130.83 76.29L131.34 77.04C131.36 77.08 131.38 77.11 131.38 77.12C131.38 77.22 131.3 77.3 131.2 77.3C131.13 77.3 131.09 77.27 131.05 77.22L130.45 76.3ZM130.59 75.14L129.93 75.14L129.93 76L130.59 76C130.8 76 131.02 75.82 131.02 75.58C131.02 75.32 130.8 75.14 130.59 75.14Z"/>
    </g>
  </g>
</svg>